<svg xmlns="http://www.w3.org/2000/svg" width="1281" height="293" viewBox="0 0 1281 293">
  <defs>
    <style>
      .cls-1 {
        fill-rule: evenodd;
      }
    </style>
  </defs>
  <path id="TBMP" class="cls-1" d="M215.478,0.078H0.284v73.29H70.927V218.943H38.277v74.181H177.782V218.943H144.835V73.368h70.643V0.078Zm339.9,81.268H478.25V109.8H323.587V81.346H478.25V0.22h-232.2V292.926H555.376V170.845l-4.124-2.475-34.645-19.8,34.645-19.8,4.124-2.474V81.346ZM323.587,215.388V187.342H478.25v28.046H323.587ZM606,292l79.087,0.708V136.424l48.434,156.284H790.63l46.434-156.284V292.708H917.28V-0.243H808.51L762.076,146.232,713.859-.243,606,0V292Zm597.26-174.753a38.456,38.456,0,0,1-38.39,38.391H1046.78V79.274h156.48V0.824H968.331v292.1h78.449V234.088h118.09q47.985,0,82.21-34.217t34.22-82.624V79.274h-78.04v37.973Z"/>
</svg>
