<svg xmlns="http://www.w3.org/2000/svg" viewBox="0 0 200 200">
  <!-- Круглый фон -->
  <circle cx="100" cy="100" r="90" fill="#f5f5f5" />
  
  <!-- Наушники -->
  <path d="M55,130 C45,130 40,120 40,110 L40,90 C40,65 65,45 100,45 C135,45 160,65 160,90 L160,110 C160,120 155,130 145,130" stroke="#004d40" stroke-width="12" stroke-linecap="round" fill="transparent" />
  <path d="M55,130 L55,110 C55,100 65,100 65,110 L65,130 C65,140 55,140 55,130 Z" fill="#004d40" />
  <path d="M145,130 L145,110 C145,100 135,100 135,110 L135,130 C135,140 145,140 145,130 Z" fill="#004d40" />
</svg>
